<?xml version="1.0" standalone="no"?><!DOCTYPE svg PUBLIC "-//W3C//DTD SVG 1.1//EN" "http://www.w3.org/Graphics/SVG/1.1/DTD/svg11.dtd"><svg t="1726048610753" class="icon" viewBox="0 0 1024 1024" version="1.1" xmlns="http://www.w3.org/2000/svg" p-id="4259" xmlns:xlink="http://www.w3.org/1999/xlink" width="200" height="200"><path d="M761.6 576a25.6 25.6 0 0 0-20.48-25.088L736 550.4h-448a25.6 25.6 0 0 0-25.088 20.48L262.4 576v64H320a64 64 0 0 1 64 64v192a64 64 0 0 1-64 64H128a64 64 0 0 1-64-64v-192a64 64 0 0 1 64-64h57.6V576a102.4 102.4 0 0 1 93.056-101.952L288 473.6h185.6V384h-57.6a64 64 0 0 1-64-64V128a64 64 0 0 1 64-64h192a64 64 0 0 1 64 64v192a64 64 0 0 1-64 64h-57.6v89.6h185.6a102.4 102.4 0 0 1 101.952 93.056L838.4 576v64h57.6a64 64 0 0 1 64 64v192a64 64 0 0 1-64 64h-192a64 64 0 0 1-64-64v-192a64 64 0 0 1 64-64h57.6V576z m-454.4 140.8H140.8v166.4h166.4v-166.4z m576 0h-166.4v166.4h166.4v-166.4z m-288-576H428.8v166.4h166.4V140.8z" p-id="4260"></path></svg>