<?xml version="1.0" standalone="no"?><!DOCTYPE svg PUBLIC "-//W3C//DTD SVG 1.1//EN" "http://www.w3.org/Graphics/SVG/1.1/DTD/svg11.dtd"><svg t="1721967459459" class="icon" viewBox="0 0 1024 1024" version="1.1" xmlns="http://www.w3.org/2000/svg" p-id="13131" xmlns:xlink="http://www.w3.org/1999/xlink" width="200" height="200"><path d="M810.688 64C895.296 64 960 128.704 960 213.312v597.376c0 39.808-14.912 79.616-44.8 104.512-24.896 29.888-64.704 44.8-104.512 44.8H213.312C128.704 960 64 895.296 64 810.688V213.312C64 128.704 128.704 64 213.312 64h597.376z m0 79.616H213.312c-39.808 0-69.696 29.888-69.696 69.76v597.312c0 39.808 29.888 69.696 69.76 69.696h597.312c19.84 0 34.816-4.992 49.728-19.968 14.976-14.912 19.968-29.824 19.968-49.728V213.312c0-39.808-29.888-69.696-69.76-69.696z m-29.888 532.672v74.624H482.112v-74.624H780.8zM512 278.016v74.688H398.848v397.056H324.288V352.64H213.312V278.016H512z m268.8 184.192V536.96H581.696V462.208H780.8z m0-184.192v74.688H631.488V278.016H780.8z" p-id="13132"></path></svg>